<mxfile
  host="Electron" 
  agent="Mozilla/5.0 (Macintosh; Intel Mac OS X 10_15_7) AppleWebKit/537.36 (KHTML, like Gecko) draw.io/25.0.2 Chrome/128.0.6613.186 Electron/32.2.5 Safari/537.36" 
  version="25.0.2"
  >
  <diagram
    name="-"
    >
    <mxGraphModel
      grid="1" 
      gridSize="10" 
      guides="1" 
      tooltips="1" 
      connect="1" 
      arrows="1" 
      fold="1" 
      page="1" 
      pageScale="1" 
      pageWidth="1" 
      pageHeight="1" 
      math="0" 
      shadow="0"
      >
      <root>
        <mxCell
          id="page"
          />
        <mxCell
          id="root" 
          parent="page"
          />
        <mxCell
          style="verticalAlign=top;aspect=fixed;align=center;spacingLeft=5;spacingRight=5;spacingBottom=5;strokeColor=none;" 
          id="shape_" 
          parent="root" 
          value=" " 
          vertex="1"
          >
          <mxGeometry
            as="geometry" 
            width="120" 
            height="120" 
            x="0" 
            y="0"
            />
          </mxCell>
        <mxCell
          style="rounded=1;whiteSpace=wrap;verticalAlign=top;align=center;sketch=0;html=1;labelPosition=center;verticalLabelPosition=bottom;spacingTop=-6;fontSize=11;fontStyle=1;fontColor=#999999;shape=image;aspect=fixed;imageAspect=0;image=data:image/svg+xml,PHN2ZyB4bWxucz0iaHR0cDovL3d3dy53My5vcmcvMjAwMC9zdmciIHhtbG5zOnY9Imh0dHBzOi8vdmVjdGEuaW8vbmFubyIgd2lkdGg9IjE4IiBoZWlnaHQ9IjE4IiB2aWV3Qm94PSIwIDAgMTggMTgiPiYjeGE7CTxzdHlsZSB0eXBlPSJ0ZXh0L2NzcyI+JiN4YTsJLnN0MHtmaWxsOiM0Mjg1ZjQ7fSYjeGE7CS5zdDF7ZmlsbDojNjY5ZGY2O30mI3hhOwk8L3N0eWxlPiYjeGE7CTxnIGNsYXNzPSJzdDAiIGZpbGw9IiM0Mjg1ZjQiPiYjeGE7CQk8cGF0aCBkPSJNMy40OCA2LjYyYS4zNy4zNyAwIDAgMS0uMzU4LS41MzMuMzcuMzcgMCAwIDEgLjMwOC0uMjA3bDIuMy0uMzJhLjM3LjM3IDAgMCAxIC40Mi4zMi4zOC4zOCAwIDAgMS0uMzIuNDNsLTIuMy4zMXoiLz4mI3hhOwkJPHBhdGggZD0iTTYuMjk5IDYuMjkybC4yMzMtLjcxMyA0LjE0NSAxLjM1Mi0uMjMzLjcxM3oiLz4mI3hhOwkJPHBhdGggZD0iTTYuMTggNi4xNmgtLjExYS4zNy4zNyAwIDAgMS0uMjQtLjQ2bC44My0yLjg0YS4zNy4zNyAwIDAgMSAuNDYtLjI0LjM2LjM2IDAgMCAxIC4yNi40NWwtLjg0IDIuODFhLjM4LjM4IDAgMCAxLS4zNi4yOHptNS4xMyAxLjRBLjM2LjM2IDAgMCAxIDExIDdsMS42Ny00LjIzYS4zOC4zOCAwIDAgMSAuNDctLjE4LjM4LjM4IDAgMCAxIC4yMy40NWwtMS42OCA0LjI0YS4zOS4zOSAwIDAgMS0uMzguMjh6Ii8+JiN4YTsJCTxwYXRoIGQ9Ik0yLjY2OSAxMy42MDRMNi42IDEwLjQ2NWwuNDY4LjU4Ni0zLjkzMSAzLjEzOXpNMTUuMDUgOC42MWwtLjMuNjgtMy42My0xLjU4LjI5LS42OXptLS4zMSA1LjQ4bC0uNTIuNTQtMy4yMy0zLjA0LjUyLS41NXpNNS43ODggNi4xMTNsLjczNS0uMTQ5LjgwOCAzLjk3OS0uNzM1LjE0OXoiLz4mI3hhOwkJPHBhdGggZD0iTTExLjU2IDcuNTZsLTQuMSAzLjYtLjUtLjU2IDQuMS0zLjZ6Ii8+JiN4YTsJCTxwYXRoIGQ9Ik0xMS43NCA3LjNsLS4yNSAzLjk3LS43NC0uMDUuMjQtMy45N3oiLz4mI3hhOwkJPGNpcmNsZSBjeD0iNy4wMSIgY3k9IjEwLjgyIiByPSIxLjM2Ii8+JiN4YTsJCTxjaXJjbGUgY3g9IjExLjM3IiBjeT0iNy4zNiIgcj0iMS42MSIvPiYjeGE7CQk8Y2lyY2xlIGN4PSIxMS4zNiIgY3k9IjExLjU0IiByPSIuODQiLz4mI3hhOwkJPGNpcmNsZSBjeD0iNi4wNCIgY3k9IjUuNjciIHI9Ii45OSIvPiYjeGE7CTwvZz4mI3hhOwk8ZyBjbGFzcz0ic3QxIiBmaWxsPSIjNjY5ZGY2Ij4mI3hhOwkJPHBhdGggZD0iTTggNGgyVjBIOHptNCAwaDJWMGgtMnpNNCA0aDJWMEg0em00IDE0aDJ2LTRIOHoiLz4mI3hhOwkJPHBhdGggZD0iTTEyIDE4aDJ2LTRoLTJ6bS04IDBoMnYtNEg0em0tNC04aDRWOEgwem0wLTRoNFY0SDB6Ii8+JiN4YTsJCTxwYXRoIGQ9Ik0wIDE0aDR2LTJIMHptMTQtNGg0VjhoLTR6bTAtNGg0VjRoLTR6bTAgOGg0di0yaC00eiIvPiYjeGE7CQk8cGF0aCBkPSJNMTUgMkgzYTEgMSAwIDAgMC0xIDF2MTJhMSAxIDAgMCAwIDEgMWgxMmExIDEgMCAwIDAgMS0xVjNhMSAxIDAgMCAwLTEtMXptLTEgMTEuNDdhLjUzLjUzIDAgMCAxLS41My41M0g0LjUzYS41My41MyAwIDAgMS0uNTMtLjUzVjQuNTNBLjUzLjUzIDAgMCAxIDQuNTMgNGg4Ljk0YS41My41MyAwIDAgMSAuNTMuNTN6Ii8+JiN4YTsJPC9nPiYjeGE7PC9zdmc+;strokeColor=none;" 
          id="cloud_tpu_" 
          parent="shape_" 
          value=" " 
          vertex="1"
          >
          <mxGeometry
            as="geometry" 
            width="60" 
            height="60" 
            x="30" 
            y="30"
            />
          </mxCell>
        </root>
      </mxGraphModel>
    </diagram>
  </mxfile>